<svg xmlns="http://www.w3.org/2000/svg" xmlns:xlink="http://www.w3.org/1999/xlink" width="282.064" height="408.686" viewBox="0 0 282.064 408.686">
  <defs>
    <clipPath id="clip-path">
      <rect id="Rectangle_52326" data-name="Rectangle 52326" width="282.064" height="408.686" fill="#0b442a"/>
    </clipPath>
  </defs>
  <g id="Group_5744" data-name="Group 5744" clip-path="url(#clip-path)">
    <path id="Path_19521" data-name="Path 19521" d="M164.767,211.677A105.839,105.839,0,1,1,270.607,105.84,105.959,105.959,0,0,1,164.767,211.677m0-204.153a98.314,98.314,0,1,0,98.315,98.315A98.427,98.427,0,0,0,164.767,7.524" transform="translate(-23.647 0)" fill="#0b442a"/>
    <path id="Path_19522" data-name="Path 19522" d="M193.515,143.964A37.513,37.513,0,1,1,156.052,106.5a37.569,37.569,0,0,1,37.463,37.462m-64.962,0a27.449,27.449,0,1,0,27.4-27.4,27.49,27.49,0,0,0-27.4,27.4" transform="translate(-47.549 -42.739)" fill="#0b442a"/>
    <path id="Path_19523" data-name="Path 19523" d="M278.259,150.608h-7.276v30.786H260.922V107.666h22.117a21.46,21.46,0,0,1,5.681,42.145l18.832,31.583H296.094Zm-7.276-10.064h12.055a11.408,11.408,0,1,0,0-22.815H270.984Z" transform="translate(-104.706 -43.206)" fill="#0b442a"/>
    <path id="Path_19524" data-name="Path 19524" d="M100.67,541.684a19.157,19.157,0,0,1-.05-38.314c5.6,0,10.443,2.446,14.468,6.878l-4.89,5.911c-2.853-2.7-5.757-4.586-9.528-4.586a10.954,10.954,0,0,0,0,21.908A13.072,13.072,0,0,0,110.2,529l4.89,6.37a19.573,19.573,0,0,1-14.418,6.318" transform="translate(-32.711 -201.999)" fill="#0b442a"/>
    <path id="Path_19525" data-name="Path 19525" d="M181.446,522.527a19.157,19.157,0,1,1-19.156-19.157,19.135,19.135,0,0,1,19.156,19.157m-30.059,0a10.852,10.852,0,0,0,10.853,10.954,10.954,10.954,0,0,0,0-21.908,10.85,10.85,0,0,0-10.853,10.954" transform="translate(-57.438 -201.999)" fill="#0b442a"/>
    <path id="Path_19526" data-name="Path 19526" d="M216.834,541.581v-37.7h20.839v8.254H225.088v6.981h11.668v7.235H225.088v15.233Z" transform="translate(-87.014 -202.203)" fill="#0b442a"/>
    <path id="Path_19527" data-name="Path 19527" d="M260.919,541.581v-37.7h20.839v8.254H269.173v6.981h11.668v7.235H269.173v15.233Z" transform="translate(-104.705 -202.203)" fill="#0b442a"/>
    <path id="Path_19528" data-name="Path 19528" d="M326.708,541.581H305v-37.7h21.7v8.254h-13.45v6.981h12.535v7.235H313.258v6.979h13.45Z" transform="translate(-122.396 -202.203)" fill="#0b442a"/>
    <path id="Path_19529" data-name="Path 19529" d="M373.094,541.581h-21.7v-37.7h21.7v8.254h-13.45v6.981h12.535v7.235H359.644v6.979h13.45Z" transform="translate(-141.011 -202.203)" fill="#0b442a"/>
    <path id="Path_19530" data-name="Path 19530" d="M141.032,564.423,0,510.157v-67.8l141.032-54.266,141.031,54.266v67.8ZM7.525,504.99l133.507,51.37,133.507-51.37V447.521l-133.507-51.37L7.525,447.521Z" transform="translate(0 -155.737)" fill="#0b442a"/>
  </g>
</svg>
